<svg xmlns="http://www.w3.org/2000/svg" viewBox="0 0 564 520" width="100%" role="img" aria-label="3-2 환경 세팅 및 맥락 최적화"><defs>
<linearGradient id="neon" x1="0" y1="0" x2="1" y2="1">
  <stop offset="0%" stop-color="#FC00DC"/><stop offset="52%" stop-color="#731FFF"/>
  <stop offset="100%" stop-color="#00FFD7"/></linearGradient>
<linearGradient id="g_start" x1="0" y1="0" x2="1" y2="1"><stop offset="0%" stop-color="#00FFD7"/><stop offset="100%" stop-color="#00B9A0"/></linearGradient>
<linearGradient id="f_start" x1="0" y1="0" x2="0" y2="1"><stop offset="0%" stop-color="#00FFD7" stop-opacity="0.20"/><stop offset="100%" stop-color="#00B9A0" stop-opacity="0.07"/></linearGradient>
<linearGradient id="g_process" x1="0" y1="0" x2="1" y2="1"><stop offset="0%" stop-color="#731FFF"/><stop offset="100%" stop-color="#4A0FB8"/></linearGradient>
<linearGradient id="f_process" x1="0" y1="0" x2="0" y2="1"><stop offset="0%" stop-color="#731FFF" stop-opacity="0.20"/><stop offset="100%" stop-color="#4A0FB8" stop-opacity="0.07"/></linearGradient>
<linearGradient id="g_decision" x1="0" y1="0" x2="1" y2="1"><stop offset="0%" stop-color="#FC00DC"/><stop offset="100%" stop-color="#A8009A"/></linearGradient>
<linearGradient id="f_decision" x1="0" y1="0" x2="0" y2="1"><stop offset="0%" stop-color="#FC00DC" stop-opacity="0.20"/><stop offset="100%" stop-color="#A8009A" stop-opacity="0.07"/></linearGradient>
<linearGradient id="g_circle" x1="0" y1="0" x2="1" y2="1"><stop offset="0%" stop-color="#00A8FF"/><stop offset="100%" stop-color="#0069B8"/></linearGradient>
<linearGradient id="f_circle" x1="0" y1="0" x2="0" y2="1"><stop offset="0%" stop-color="#00A8FF" stop-opacity="0.20"/><stop offset="100%" stop-color="#0069B8" stop-opacity="0.07"/></linearGradient>
<linearGradient id="g_danger" x1="0" y1="0" x2="1" y2="1"><stop offset="0%" stop-color="#FF4D6D"/><stop offset="100%" stop-color="#B00030"/></linearGradient>
<linearGradient id="f_danger" x1="0" y1="0" x2="0" y2="1"><stop offset="0%" stop-color="#FF4D6D" stop-opacity="0.20"/><stop offset="100%" stop-color="#B00030" stop-opacity="0.07"/></linearGradient>
<linearGradient id="g_success" x1="0" y1="0" x2="1" y2="1"><stop offset="0%" stop-color="#3DDC84"/><stop offset="100%" stop-color="#1E9E58"/></linearGradient>
<linearGradient id="f_success" x1="0" y1="0" x2="0" y2="1"><stop offset="0%" stop-color="#3DDC84" stop-opacity="0.20"/><stop offset="100%" stop-color="#1E9E58" stop-opacity="0.07"/></linearGradient>
<linearGradient id="g_end" x1="0" y1="0" x2="1" y2="1"><stop offset="0%" stop-color="#FC00DC"/><stop offset="100%" stop-color="#731FFF"/></linearGradient>
<linearGradient id="f_end" x1="0" y1="0" x2="0" y2="1"><stop offset="0%" stop-color="#FC00DC" stop-opacity="0.20"/><stop offset="100%" stop-color="#731FFF" stop-opacity="0.07"/></linearGradient>
<filter id="glow" x="-60%" y="-60%" width="220%" height="220%"><feGaussianBlur stdDeviation="7" result="b"/><feMerge><feMergeNode in="b"/><feMergeNode in="SourceGraphic"/></feMerge></filter>
<filter id="soft" x="-40%" y="-40%" width="180%" height="180%"><feDropShadow dx="0" dy="6" stdDeviation="10" flood-color="#000" flood-opacity="0.55"/></filter>
<marker id="ah" viewBox="0 0 12 12" refX="10" refY="6" markerWidth="9" markerHeight="9" orient="auto-start-reverse"><path d="M1 1 L11 6 L1 11 z" fill="#6E7488"/></marker>
</defs><rect width="564" height="520" rx="18" fill="#05060A"/><text x="34" y="42" font-family="'Pretendard','Pretendard Variable',-apple-system,'Apple SD Gothic Neo','Malgun Gothic','Noto Sans KR','Noto Sans CJK KR',sans-serif" font-size="17" font-weight="800" fill="url(#neon)">3-2 환경 세팅 및 맥락 최적화</text><rect x="34" y="52" width="72" height="3.5" rx="1.8" fill="url(#neon)"/><path d="M 140.0 175.0 C 274.1 175.0, 274.1 128.0, 408.2 128.0" fill="none" stroke="#6E7488" stroke-width="2" marker-end="url(#ah)" opacity="0.9"/>
<path d="M 220.0 255.0 C 270.3 255.0, 270.3 203.0, 320.7 203.0" fill="none" stroke="#6E7488" stroke-width="2" marker-end="url(#ah)" opacity="0.9"/>
<path d="M 220.0 255.0 C 266.0 255.0, 266.0 307.0, 312.0 307.0" fill="none" stroke="#6E7488" stroke-width="2" marker-end="url(#ah)" opacity="0.9"/>
<path d="M 140.0 335.0 C 274.1 335.0, 274.1 382.0, 408.2 382.0" fill="none" stroke="#6E7488" stroke-width="2" marker-end="url(#ah)" opacity="0.9"/>
<circle cx="140.0" cy="255.0" r="80.0" fill="url(#f_decision)" stroke="url(#g_decision)" stroke-width="2.4" filter="url(#soft)"/>
<circle cx="140.0" cy="255.0" r="80.0" fill="none" stroke="#FC00DC" stroke-width="1" opacity="0.55" filter="url(#glow)"/>
<text x="140.0" y="255.0" text-anchor="middle" dominant-baseline="middle" font-family="'Pretendard','Pretendard Variable',-apple-system,'Apple SD Gothic Neo','Malgun Gothic','Noto Sans KR','Noto Sans CJK KR',sans-serif" font-size="15.5" font-weight="700" fill="#FFFFFF">PREP</text>
<rect x="328.2" y="70.0" width="160.0" height="58.0" rx="22" fill="rgba(255,255,255,0.055)" stroke="rgba(255,255,255,0.20)" stroke-width="1.2" filter="url(#soft)"/>
<rect x="328.2" y="70.0" width="160.0" height="58.0" rx="22" fill="url(#f_process)" stroke="url(#g_process)" stroke-width="2"/>
<rect x="328.2" y="80.0" width="4.5" height="38.0" rx="2.2" fill="url(#g_process)" filter="url(#glow)"/>
<text x="408.2" y="99.0" text-anchor="middle" dominant-baseline="middle" font-family="'Pretendard','Pretendard Variable',-apple-system,'Apple SD Gothic Neo','Malgun Gothic','Noto Sans KR','Noto Sans CJK KR',sans-serif" font-size="15.5" font-weight="700" fill="#FFFFFF">Persona (역할)</text>
<rect x="320.7" y="174.0" width="175.1" height="58.0" rx="22" fill="rgba(255,255,255,0.055)" stroke="rgba(255,255,255,0.20)" stroke-width="1.2" filter="url(#soft)"/>
<rect x="320.7" y="174.0" width="175.1" height="58.0" rx="22" fill="url(#f_process)" stroke="url(#g_process)" stroke-width="2"/>
<rect x="320.7" y="184.0" width="4.5" height="38.0" rx="2.2" fill="url(#g_process)" filter="url(#glow)"/>
<text x="408.2" y="203.0" text-anchor="middle" dominant-baseline="middle" font-family="'Pretendard','Pretendard Variable',-apple-system,'Apple SD Gothic Neo','Malgun Gothic','Noto Sans KR','Noto Sans CJK KR',sans-serif" font-size="15.5" font-weight="700" fill="#FFFFFF">Recipient (대상)</text>
<rect x="312.0" y="278.0" width="192.5" height="58.0" rx="22" fill="rgba(255,255,255,0.055)" stroke="rgba(255,255,255,0.20)" stroke-width="1.2" filter="url(#soft)"/>
<rect x="312.0" y="278.0" width="192.5" height="58.0" rx="22" fill="url(#f_process)" stroke="url(#g_process)" stroke-width="2"/>
<rect x="312.0" y="288.0" width="4.5" height="38.0" rx="2.2" fill="url(#g_process)" filter="url(#glow)"/>
<text x="408.2" y="307.0" text-anchor="middle" dominant-baseline="middle" font-family="'Pretendard','Pretendard Variable',-apple-system,'Apple SD Gothic Neo','Malgun Gothic','Noto Sans KR','Noto Sans CJK KR',sans-serif" font-size="15.5" font-weight="700" fill="#FFFFFF">Environment (환경)</text>
<rect x="328.2" y="382.0" width="160.0" height="58.0" rx="22" fill="rgba(255,255,255,0.055)" stroke="rgba(255,255,255,0.20)" stroke-width="1.2" filter="url(#soft)"/>
<rect x="328.2" y="382.0" width="160.0" height="58.0" rx="22" fill="url(#f_process)" stroke="url(#g_process)" stroke-width="2"/>
<rect x="328.2" y="392.0" width="4.5" height="38.0" rx="2.2" fill="url(#g_process)" filter="url(#glow)"/>
<text x="408.2" y="411.0" text-anchor="middle" dominant-baseline="middle" font-family="'Pretendard','Pretendard Variable',-apple-system,'Apple SD Gothic Neo','Malgun Gothic','Noto Sans KR','Noto Sans CJK KR',sans-serif" font-size="15.5" font-weight="700" fill="#FFFFFF">Purpose (목적)</text></svg>